<?xml version="1.0" encoding="UTF-8" standalone="no"?>
<!-- Created with Inkscape (http://www.inkscape.org/) -->

<svg
   width="350"
   height="330"
   viewBox="0 0 92.604161 87.3125"
   version="1.1"
   id="svg377"
   inkscape:version="1.2.2 (732a01da63, 2022-12-09)"
   sodipodi:docname="popup_2.svg"
   xmlns:inkscape="http://www.inkscape.org/namespaces/inkscape"
   xmlns:sodipodi="http://sodipodi.sourceforge.net/DTD/sodipodi-0.dtd"
   xmlns="http://www.w3.org/2000/svg"
   xmlns:svg="http://www.w3.org/2000/svg">
  <sodipodi:namedview
     id="namedview379"
     pagecolor="#ffffff"
     bordercolor="#000000"
     borderopacity="0.25"
     inkscape:showpageshadow="2"
     inkscape:pageopacity="0.0"
     inkscape:pagecheckerboard="0"
     inkscape:deskcolor="#d1d1d1"
     inkscape:document-units="mm"
     showgrid="false"
     inkscape:zoom="8.0000002"
     inkscape:cx="323.68749"
     inkscape:cy="288.68749"
     inkscape:window-width="1920"
     inkscape:window-height="991"
     inkscape:window-x="-9"
     inkscape:window-y="-9"
     inkscape:window-maximized="1"
     inkscape:current-layer="layer1"
     showguides="true" />
  <defs
     id="defs374" />
  <g
     inkscape:label="Слой 1"
     inkscape:groupmode="layer"
     id="layer1">
    <rect
       style="fill:#db9c85;fill-opacity:1;stroke:#000000;stroke-width:0.2;stroke-opacity:1"
       id="rect358-6"
       width="92.401649"
       height="87.112488"
       x="0.10122503"
       y="0.10062327" />
    <path
       id="path16558-70-9"
       style="fill:#ffffff;fill-opacity:1;stroke:#000000;stroke-width:0.2;stroke-dasharray:none;stroke-opacity:1"
       d="m 86.791695,0.10111883 c -0.0485,6.5167e-4 -0.10286,0.004351 -0.16365,0.0100179 -0.69311,0.0643879 -0.86759,1.10758667 -0.4135,2.07379017 0.30652,0.6521814 0.30659,0.6631991 0.0187,1.1988326 -0.36802,0.6849046 -0.3642,0.9621377 0.0225,1.7141414 0.31245,0.6066211 0.31254,0.6061374 0.002,1.1548955 -0.39147,0.6927205 -0.39046,1.1320091 0.004,1.8246102 0.28205,0.4956044 0.29039,0.5802548 0.0881,0.8730754 -0.42557,0.6159479 -0.45929,1.313155 -0.0956,1.970228 0.33283,0.602822 0.33291,0.603154 0.002,1.230844 -0.35898,0.681828 -0.32495,1.368723 0.0987,1.977757 0.20147,0.289706 0.19169,0.379795 -0.0993,0.909481 -0.35595,0.647753 -0.30732,1.576172 0.0987,1.893652 0.27821,0.216728 0.27833,0.624784 0.002,0.84232 -0.391,0.307688 -0.44243,1.217507 -0.10931,1.926292 0.30224,0.643555 0.30221,0.645095 -6.2e-4,1.225822 -0.33568,0.64367 -0.27729,1.580123 0.11805,1.889258 0.2907,0.227291 0.2732,0.554455 -0.0481,0.891278 -0.33455,0.350657 -0.32598,1.439846 0.0162,2.03676 0.21142,0.368819 0.21586,0.467088 0.0325,0.73248 -0.41354,0.598498 -0.44331,1.301256 -0.0831,1.952024 0.33281,0.602822 0.3329,0.603157 0.002,1.230844 -0.35669,0.677683 -0.3247,1.368553 0.0912,1.96646 0.19045,0.273846 0.18046,0.375485 -0.0856,0.870565 -0.38533,0.716854 -0.37924,1.108997 0.03,1.880471 0.3059,0.576631 0.31253,0.642208 0.0849,0.880609 -0.41841,0.43836 -0.47077,1.320461 -0.11618,1.963322 0.29585,0.536706 0.29848,0.583629 0.055,0.932704 -0.34762,0.498739 -0.34551,1.763504 0.004,2.127142 0.32263,0.335958 0.33025,0.584781 0.0275,0.90195 -0.41838,0.438358 -0.44127,1.192646 -0.0581,1.914992 0.31926,0.601978 0.32841,0.677306 0.10806,0.910108 -0.43744,0.462141 -0.48275,1.244484 -0.11244,1.94261 0.33402,0.629598 0.33373,0.629869 0.0169,1.190672 -0.39414,0.697664 -0.39891,1.140186 -0.0194,1.807035 0.29421,0.515706 0.2943,0.525897 0.002,1.068906 -0.37569,0.698928 -0.37145,1.144566 0.0181,1.829003 0.31236,0.547856 0.31245,0.547392 0.002,1.154896 -0.37677,0.738511 -0.38036,0.996648 -0.0262,1.736738 0.26588,0.555677 0.26539,0.592602 -0.0137,1.193182 -0.31835,0.684995 -0.25641,1.600061 0.12868,1.901184 0.1189,0.09295 0.21589,0.282636 0.21612,0.421161 2.3e-4,0.138537 -0.0963,0.327879 -0.21487,0.421161 -0.39997,0.314726 -0.44959,1.246943 -0.10181,1.908715 0.27789,0.528921 0.29009,0.636641 0.10244,0.908225 -0.41819,0.605209 -0.44356,1.294921 -0.0731,2.015418 0.27213,0.529213 0.308,0.718586 0.16927,0.901322 -0.53724,0.707647 -0.56252,1.549756 -0.0675,2.261461 0.21127,0.304063 0.21176,0.370694 0.001,0.675363 -0.43164,0.624789 -0.4712,1.322232 -0.11181,1.971482 0.32688,0.590672 0.32696,0.591115 0.002,1.227077 -0.3503,0.686624 -0.31547,1.387349 0.0987,1.98278 0.19087,0.274402 0.17949,0.374578 -0.0956,0.875587 -0.35334,0.643492 -0.31842,1.503435 0.0775,1.915621 0.13259,0.138038 0.24093,0.337842 0.24111,0.443756 1.7e-4,0.105961 -0.10773,0.305967 -0.23986,0.444383 -0.39454,0.413327 -0.42597,1.27316 -0.0706,1.915621 0.27675,0.500219 0.28742,0.600625 0.0974,0.875587 -0.55853,0.808342 -0.36387,2.097703 0.24991,2.559281 -0.55862,0.198959 -0.63271,1.18709 -0.21555,2.074737 0.30652,0.652182 0.3066,0.663826 0.0187,1.19946 -0.36802,0.6849 -0.3642,0.961509 0.0225,1.713513 0.16826,0.326664 0.2333,0.632768 0.2333,0.632768 l 1.329658,0.03159 c 0,0 -0.106094,-0.172563 -0.349438,-0.365493 -1.08029,-0.856461 -0.57273,-2.836899 0.5553,-2.166685 0.5279,0.313657 0.74323,0.799871 0.28108,0.634564 -0.84781,-0.303241 -1.31702,-0.0069 -1.08373,0.68415 0.41314,1.223743 2.88485,0.567479 2.59096,-0.687915 -0.0877,-0.374929 -0.0583,-0.432682 0.21986,-0.433087 0.37819,-5.47e-4 1.06909,-0.399502 1.06874,-0.61699 -5e-4,-0.309073 -0.51742,-0.675364 -0.95193,-0.674736 -0.4035,5.87e-4 -0.43886,-0.03595 -0.35291,-0.361532 0.10988,-0.416515 -0.11005,-0.892399 -0.57654,-1.248416 l -6.2e-4,-6.29e-4 c -0.97535,-0.744367 -2.65397,0.409083 -1.78581,1.227077 0.25239,0.237844 0.36219,0.265571 0.50595,0.129298 0.35296,-0.334624 0.82815,-0.228457 0.50282,0.112351 -0.80337,0.841612 -2.02636,-0.335104 -1.47287,-1.387758 0.0685,-0.130331 0.13379,-0.319133 0.20819,-0.335995 0.51287,-0.116238 0.79155,-0.06561 0.37896,-0.18873 -0.42327,-0.126293 -1.05254,-1.126815 -0.93819,-1.560364 0.20852,-0.790375 1.21685,-1.115252 1.66838,-0.537905 0.24505,0.313414 0.0335,0.461051 -0.29358,0.205244 -0.31811,-0.248736 -0.82195,-0.03621 -0.93569,0.394799 -0.10957,0.415319 0.66249,1.18265 1.18929,1.181885 0.84551,-0.0012 1.58698,-0.845899 1.40916,-1.605556 -0.0962,-0.41108 -0.0778,-0.440806 0.23486,-0.364043 0.35855,0.08809 1.06043,-0.253079 1.06,-0.51531 -5e-4,-0.305397 -0.51557,-0.675353 -0.93882,-0.674734 -0.38281,5.58e-4 -0.42406,-0.04099 -0.34417,-0.34333 0.30393,-1.15128 -1.38353,-2.005182 -2.28176,-1.153641 -0.71372,0.67665 -0.33037,1.420476 0.56653,1.099033 0.63009,-0.22583 0.68803,-0.123528 0.18239,0.320735 -0.51246,0.450202 -0.55675,0.451159 -1.07935,0.02763 -0.63487,-0.51455 -0.57013,-1.302691 0.15491,-1.881726 0.54287,-0.433623 0.54293,-0.433327 0.0874,-0.677873 -0.59657,-0.319706 -0.81836,-0.867416 -0.60402,-1.484418 0.2565,-0.738353 1.14862,-0.897333 1.57719,-0.281192 0.13707,0.197128 0.18356,0.358273 0.10307,0.358395 -0.0805,1.09e-4 -0.18875,-0.06428 -0.24049,-0.143107 -0.13003,-0.198161 -0.73563,-0.179075 -0.9563,0.03012 -0.70073,0.664324 0.81829,1.755232 1.77082,1.271641 0.45084,-0.228891 0.80685,-0.938026 0.69021,-1.374577 -0.0854,-0.319548 -0.0487,-0.359719 0.32606,-0.360277 1.16612,-0.0017 1.25183,-1.191608 0.0874,-1.215778 -0.34822,-0.0072 -0.39873,-0.0641 -0.37166,-0.423672 0.093,-1.234856 -1.29853,-1.918466 -2.25553,-1.107821 -0.79574,0.674064 -0.27985,1.63099 0.5884,1.091502 0.47077,-0.292523 0.59997,-0.18219 0.24611,0.209638 -0.51875,0.57442 -1.37436,0.297925 -1.6434,-0.531 -0.12926,-0.398267 0.43239,-1.263321 0.89509,-1.378343 0.26679,-0.06635 0.23397,-0.129073 -0.2942,-0.559246 -1.13538,-0.924745 -0.29988,-2.8084 0.85637,-1.930685 0.48339,0.367015 0.46225,0.673992 -0.0306,0.442502 -0.88443,-0.415405 -1.37032,0.256688 -0.73519,1.017437 0.72975,0.874036 2.50075,0.09108 2.37484,-1.050076 -0.0298,-0.270248 0.0386,-0.37881 0.26296,-0.414884 0.4943,-0.07949 0.98663,-0.356456 0.98629,-0.555479 -5.5e-4,-0.347338 -0.59619,-0.732303 -1.01502,-0.655905 -0.36425,0.06638 -0.38842,0.04118 -0.29607,-0.30881 0.23873,-0.904922 -0.99948,-1.933095 -1.82392,-1.514544 -0.62613,0.317907 -0.89373,0.792042 -0.68771,1.217661 0.17213,0.355622 0.6834,0.478962 0.86011,0.207755 0.0515,-0.079 0.1938,-0.143552 0.31606,-0.143735 0.1881,-2.67e-4 0.18377,0.0551 -0.0262,0.359022 -0.52889,0.765464 -1.63973,0.261415 -1.64214,-0.744405 -6.6e-4,-0.405942 0.10361,-0.599048 0.48471,-0.900693 0.58618,-0.463927 0.60233,-0.616442 0.0981,-0.927681 -0.76665,-0.47322 -0.82798,-1.438877 -0.1193,-1.879217 0.43652,-0.271232 1.02895,-0.187552 1.17305,0.165702 0.13801,0.338266 -0.026,0.430065 -0.3879,0.21717 -0.77859,-0.457999 -1.13187,0.512211 -0.416,1.142343 0.89616,0.788771 2.19826,0.174984 2.16309,-1.019949 -0.0157,-0.532284 0.0161,-0.591668 0.28608,-0.525351 0.3277,0.08051 1.02417,-0.27598 1.02376,-0.524097 -4.9e-4,-0.309066 -0.51743,-0.675367 -0.95193,-0.674735 -0.40289,5.83e-4 -0.43888,-0.03606 -0.35354,-0.359649 0.30577,-1.158957 -1.42425,-2.018362 -2.28676,-1.136067 -0.71125,0.727593 -0.0842,1.54703 0.77516,1.013045 0.4886,-0.303637 0.5037,-0.04454 0.0237,0.41049 -0.63897,0.605755 -1.53229,0.07291 -1.50473,-0.897555 0.0116,-0.406842 0.12433,-0.616571 0.48409,-0.901321 0.49139,-0.388925 0.61023,-0.709128 0.26359,-0.708629 -0.36052,5.22e-4 -0.76808,-0.569619 -0.76892,-1.075183 -0.002,-0.931352 1.03273,-1.436086 1.61966,-0.790224 0.37126,0.408529 0.32714,0.467642 -0.17052,0.22533 -0.83735,-0.407776 -1.42687,0.379661 -0.77641,1.037523 0.89376,0.903903 2.66929,0.100746 2.35734,-1.066396 -0.0797,-0.298208 -0.0383,-0.343448 0.31669,-0.343958 0.43424,-6.44e-4 0.96302,-0.359236 0.96255,-0.652767 -3.7e-4,-0.235558 -0.67097,-0.638902 -1.06124,-0.638331 -0.25484,3.76e-4 -0.29467,-0.06367 -0.21925,-0.349607 0.29673,-1.124826 -1.28805,-1.909172 -2.23554,-1.106566 -0.86903,0.736155 -0.23262,1.542404 0.80265,1.01681 0.27554,-0.139908 0.28938,-0.126376 0.14054,0.137458 -0.56921,1.008954 -2.01726,0.28031 -1.72522,-0.868055 0.0881,-0.34656 0.73589,-0.97939 1.00252,-0.979778 0.0844,-1.22e-4 -0.10415,-0.209651 -0.4185,-0.465724 -0.46734,-0.380728 -0.57464,-0.566807 -0.58902,-1.021831 -0.0294,-0.932093 0.91349,-1.420276 1.56219,-0.809055 0.41182,0.387978 0.38858,0.644781 -0.0331,0.366553 -0.45561,-0.300685 -0.83435,-0.279865 -1.02376,0.05586 -0.23072,0.408955 -0.19672,0.558838 0.21674,0.948396 0.8984,0.846512 2.57611,-0.0087 2.26928,-1.15678 -0.0864,-0.323228 -0.0506,-0.359693 0.35229,-0.360276 0.68477,-9.96e-4 1.08746,-0.48197 0.72207,-0.862407 -0.15142,-0.157618 -0.46782,-0.285925 -0.70333,-0.285585 -0.38491,5.59e-4 -0.42054,-0.03941 -0.35104,-0.39417 0.25065,-1.278715 -1.5052,-2.017605 -2.44792,-1.029993 -0.5512,0.577408 0.0601,1.355712 0.77829,0.991077 0.49032,-0.248944 0.59126,-0.120707 0.2105,0.266756 -0.618,0.628893 -1.52684,0.191565 -1.55658,-0.748799 -0.0143,-0.453142 0.0716,-0.62727 0.48471,-0.977268 0.50292,-0.42568 0.50315,-0.425393 -6.2e-4,-0.915129 -0.64394,-0.625991 -0.69998,-1.378673 -0.13367,-1.791345 0.59419,-0.432966 0.98275,-0.320153 1.42915,0.414886 0.0934,0.154167 0.0313,0.152502 -0.31856,-0.0095 -0.99923,-0.462469 -1.52262,0.355856 -0.68085,1.064512 0.88287,0.743261 2.20736,0.177557 2.20494,-0.942118 -6.9e-4,-0.409246 0.0589,-0.520642 0.27796,-0.520958 0.34391,-4.99e-4 1.0266,-0.411044 1.02626,-0.616992 -4.9e-4,-0.307899 -0.51669,-0.675353 -0.94756,-0.674734 -0.40486,5.83e-4 -0.4364,-0.0342 -0.35541,-0.394171 0.31996,-1.42126 -2.03451,-2.048911 -2.5641,-0.683523 -0.23412,0.603655 0.33527,1.061904 0.89072,0.716788 0.49512,-0.307644 0.692,-0.172179 0.31856,0.219055 -0.62612,0.655931 -1.65472,0.149856 -1.65714,-0.814704 -6.5e-4,-0.405918 0.10359,-0.599664 0.48471,-0.901321 0.50576,-0.400294 0.63084,-0.722308 0.28046,-0.72181 -0.69735,0.001 -1.05887,-1.511367 -0.46347,-1.938844 0.38439,-0.275919 0.95962,-0.265943 1.29798,0.0226 0.36434,0.310609 0.35336,0.471518 -0.0256,0.378479 -0.1671,-0.04104 -0.30409,-0.131762 -0.3042,-0.20148 -3.6e-4,-0.225793 -0.40103,-0.133559 -0.67709,0.15566 -0.77053,0.807184 0.91517,1.892704 1.83828,1.18377 0.48939,-0.375785 0.69468,-0.856541 0.5784,-1.353237 -0.0966,-0.412562 -0.0789,-0.435764 0.26547,-0.354628 0.38856,0.09157 1.03109,-0.228013 1.03064,-0.5128 -5.4e-4,-0.316511 -0.513,-0.684166 -0.95256,-0.683523 -0.4035,5.95e-4 -0.43886,-0.03594 -0.35292,-0.361532 0.29746,-1.12757 -1.30878,-1.945825 -2.22992,-1.136066 -0.76278,0.670555 -0.38947,1.388122 0.57591,1.106566 0.58835,-0.17161 0.534,0.22655 -0.0731,0.534767 -1.1889,0.603594 -1.71629,-1.221324 -0.60839,-2.105173 0.46249,-0.368971 0.46252,-0.369175 0.0156,-0.625152 -0.566,-0.324211 -0.65949,-0.471891 -0.67835,-1.071415 -0.0297,-0.939544 0.91953,-1.405017 1.5547,-0.762609 0.39283,0.397269 0.33581,0.442285 -0.28046,0.223447 -0.85302,-0.302895 -1.23677,0.476558 -0.55217,1.12163 0.89471,0.843039 2.59828,-0.02864 2.29239,-1.173098 -0.0807,-0.302102 -0.0399,-0.343402 0.34292,-0.343958 0.24205,-3.5e-4 0.55689,-0.128128 0.70958,-0.288096 0.36133,-0.378542 -0.0399,-0.860872 -0.7152,-0.859895 -0.4165,6.05e-4 -0.43432,-0.0242 -0.34355,-0.485182 0.22884,-1.162747 -1.50042,-1.925613 -2.31924,-1.023087 -0.69497,0.765989 -0.16814,1.473726 0.75642,1.016183 0.46246,-0.228858 0.51933,-0.147744 0.18801,0.267383 -0.26099,0.327012 -1.05574,0.36996 -1.35606,0.07343 -0.5246,-0.517969 -0.45457,-1.121267 0.19863,-1.710374 0.61664,-0.556156 0.6167,-0.555804 0.10618,-0.852992 -0.82012,-0.477416 -0.84645,-1.53224 -0.0493,-1.99094 0.46164,-0.265655 0.75556,-0.169332 1.13683,0.371575 0.21745,0.308512 0.21574,0.309273 -0.23424,0.09791 -0.80807,-0.379516 -1.36106,0.178979 -0.8726,0.881236 0.73867,1.061943 2.62429,0.376244 2.47852,-0.90132 -0.0369,-0.32388 0.0158,-0.409216 0.25735,-0.41614 1.16323,-0.03325 1.19606,-1.213085 0.0337,-1.211385 -0.40287,5.86e-4 -0.43888,-0.03604 -0.35354,-0.359649 0.31498,-1.19389 -1.66797,-2.043166 -2.41357,-1.033758 -0.51165,0.692653 -0.0836,1.28377 0.72083,0.99547 0.58394,-0.209289 0.66801,-0.145406 0.31731,0.242905 -0.59464,0.658414 -1.63099,0.167366 -1.63341,-0.773278 -8.2e-4,-0.505563 0.40527,-1.076543 0.7658,-1.077066 0.35341,-5.13e-4 0.22132,-0.399476 -0.23299,-0.704235 -0.79049,-0.530274 -0.72315,-1.589857 0.12867,-2.022322 0.36115,-0.18336 0.82112,0.0024 1.06375,0.429319 0.16418,0.288788 -0.12921,0.2793 -0.54156,-0.01758 -0.6332,-0.455902 -1.01552,0.701282 -0.40725,1.232726 0.92374,0.807077 2.52791,-0.01638 2.2268,-1.14297 -0.0847,-0.316966 -0.0483,-0.361659 0.29732,-0.36216 0.4099,-5.94e-4 1.00482,-0.383769 1.0044,-0.647119 -4.3e-4,-0.263349 -0.59638,-0.644575 -1.00628,-0.64398 -0.34563,5.01e-4 -0.38221,-0.04434 -0.29857,-0.361532 0.29746,-1.12746 -1.30941,-1.945811 -2.23054,-1.136066 -0.60656,0.533204 -0.22072,1.689206 0.411,1.231471 0.41941,-0.304125 0.70509,-0.308637 0.53593,-0.0087 -0.2822,0.500179 -0.8156,0.64065 -1.25925,0.331405 -0.74085,-0.516442 -0.67031,-1.312244 0.17927,-2.014792 0.55061,-0.455305 0.55097,-0.45513 0.1649,-0.595021 -0.55328,-0.200485 -0.8149,-0.555167 -0.81576,-1.107821 -0.001,-0.934578 1.03655,-1.426076 1.6309,-0.772023 0.35627,0.392033 0.2091,0.517459 -0.26422,0.225331 -0.34592,-0.213512 -0.39753,-0.211648 -0.71082,0.02887 -0.88544,0.679786 0.62664,1.846464 1.69211,1.305535 0.41595,-0.211172 0.79113,-0.96802 0.6821,-1.375832 -0.0797,-0.298253 -0.0383,-0.342817 0.31669,-0.343331 0.81319,-0.0012 1.20799,-0.641351 0.62088,-1.006768 -0.32775,-0.203976 -0.41454,-0.231488 -0.83201,-0.268011 -0.12123,-0.01056 -0.15655,-0.157429 -0.10119,-0.421161 0.18421,-0.877585 -1.19962,-1.74879 -1.99382,-1.25532 -1.06837,0.663831 -0.65951,1.84145 0.44974,1.295491 0.36445,-0.179378 0.37971,-0.173777 0.23423,0.08411 -0.60169,1.06655 -2.08604,0.190076 -1.65714,-0.978523 0.0812,-0.221219 0.35483,-0.517958 0.60777,-0.659672 0.4599,-0.257728 0.45964,-0.257807 -0.11244,-0.723754 -0.94363,-0.768579 -0.70205,-1.9931275 0.39352,-1.9947061 0.28089,-4.068e-4 0.5527,0.1078595 0.68584,0.2736601 0.34219,0.4260436 0.27193,0.5178947 -0.2155,0.2805643 -0.79202,-0.3856452 -1.33413,0.1711302 -0.84762,0.8705657 0.73309,1.053925 2.38117,0.531793 2.42481,-0.7682575 0.0158,-0.469909 0.0695,-0.5462212 0.41413,-0.5849794 1.05457,-0.1185565 1.00392,-1.1771879 -0.0562,-1.1756083 -0.38283,5.545e-4 -0.42395,-0.040365 -0.34417,-0.3427027 0.30218,-1.1453329 -1.40353,-2.012437 -2.29551,-1.1668219 -0.68252,0.6470551 -0.29612,1.4257415 0.55592,1.1203752 0.61557,-0.2206278 0.67196,-0.1755887 0.28045,0.2228187 -0.6331,0.644248 -1.58379,0.1814112 -1.55719,-0.7582135 0.017,-0.5995761 0.11027,-0.7474497 0.67522,-1.0733 0.44617,-0.2572793 0.4462,-0.2575191 -0.0175,-0.6251502 -1.08029,-0.8564582 -0.57273,-2.8368986 0.55529,-2.166685 0.5279,0.3136579 0.74324,0.8004981 0.28109,0.6351934 -0.84782,-0.3032453 -1.31702,-0.00749 -1.08373,0.6835213 0.41314,1.2237442 2.88484,0.5674818 2.59095,-0.687915 -0.0877,-0.374924 -0.0583,-0.4326818 0.21987,-0.4330865 0.37819,-5.475e-4 1.06909,-0.3988739 1.06874,-0.6163628 2.3e-4,-0.3088139 -0.51669,-0.6757336 -0.9512,-0.6751042 -0.4035,5.869e-4 -0.43948,-0.035316 -0.35354,-0.360905 0.10989,-0.4165155 -0.10942,-0.8930272 -0.57591,-1.24904464 h -6.2e-4 c -0.97535,-0.74436844 -2.65397,0.40845464 -1.78581,1.22644874 0.25239,0.2378435 0.36219,0.2661982 0.50595,0.1299252 0.35296,-0.3346246 0.82815,-0.228457 0.50282,0.1123524 -0.80337,0.8416121 -2.02636,-0.3351042 -1.47287,-1.38775832 0.20171,-0.38361932 0.15902,-0.5104542 -0.18052,-0.50589453 z"
       sodipodi:nodetypes="sscccccscccccccccccscscccccccccscccccscscsccssccccsscssscccscccccsscsssscccccssssccscsscssccscsccscsscscccssssscscscssccccscsscccscscsssscccsssscsccscsscscscsscccsccscsccssccsscsscsssccsccsccccsccsscscsssscccsssscscssssssssccscsccsscsssccscssscscccssccsssssssssscsssscssccccssscccssccssscccccssss" />
  </g>
</svg>
